{"title":"Master.Of.Sex.S01E01.1080p.WEB-DL.iTA.ENG.6CH.SUBS.H264-SMiL3.mk","uid":10430606,"size":2745891952,"categoryP":"video","categoryS":"hd___tv_shows","magnet":"?xt=urn:btih:0cbd3a6f52c18ce172251504205750bf7fc7b752&amp;dn=Master.Of.Sex.S01E01.1080p.WEB-DL.iTA.ENG.6CH.SUBS.H264-SMiL3.mk&amp;tr=udp%3A%2F%2Ftracker.openbittorrent.com%3A80&amp;tr=udp%3A%2F%2Fopen.demonii.com%3A1337&amp;tr=udp%3A%2F%2Ftracker.coppersurfer.tk%3A6969&amp;tr=udp%3A%2F%2Fexodus.desync.com%3A6969","seeders":6,"leechers":3,"uploader":"SMiL3MAN","files":1,"time":1403796154,"description":"SMiL3 iS PROUD TO PRESENT:\n\nMaster.Of.Sex.S01E01.1080p.WEB-DL.iTA.ENG.6CH.SUBS.H264-SMiL3\n\n  \t\n        SHOW: Masters Of Sex (2013)\n        EPiSODE: Season 01 Episode 01/12\n        TiTLE: Pilot\n        AiR DATE: 2014/06/09 (iTA) / 2013/09/29 (USA)\n        iMDB: http://www.imdb.com/title/tt2137109/\n\nGENERAL FiLE iNFO:\n\n        SiZE: 2.55 GB\n        LENGTH: 1h 1m\n        ViDEO: 1916x1076 - 5000 Kbps\n        AUDiO #1: iTALiAN AC3 5.1 384 Kbps\n        AUDiO #2: ENGLiSH AC3 5.1 384 Kbps\n        SUBTiTLES: iTALiAN (Forced), iTALiAN, ENGLiSH\n        RELEASE DATE: 2014/06/25\n        MD5 CHECKSUM: 24433b109cf4c7f2fc0caf66c5f5d33b\n\nSOURCES:\n\n        ViDEO AND ENGLISH AUDiO: WEB-DL by ECI\n        iTALiAN AUDIO: HDTV by SATOSHi\n        iTALiAN SUBTiTLES: ITALIANSUBS CREW\n\n        EVERYTHiNG MUXED BY ME! THANKS TO THE ORiGiNAL SOURCES!\n\nMEDiAiNFO:\n\nGeneral\nUnique ID                                : 204946818866160723827522166686339712134 (0x9A2F5250D8C93C8081BA5CC91ABE4486)\nComplete name                            : D:seriesMasters_Of_Sex_1080p_SMiL3Master.Of.Sex.S01E01.1080p.WEB-DL.iTA.ENG.6CH.SUBS.H264-SMiL3.mkv\nFormat                                   : Matroska\nFormat version                           : Version 4 / Version 2\nFile size                                : 2.56 GiB\nDuration                                 : 1h 1mn\nOverall bit rate                         : 5 967 Kbps\nEncoded date                             : UTC 2014-06-21 20:08:19\nWriting application                      : mkvmerge v7.0.0 ('Where We Going') 64bit built on Jun  9 2014 15:16:27\nWriting library                          : libebml v1.3.0 + libmatroska v1.4.1\nDURATION                                 : 01:00:24.287000000\nNUMBER_OF_FRAMES                         : 949\nNUMBER_OF_BYTES                          : 37703\n_STATISTICS_WRITING_APP                  : mkvmerge v7.0.0 ('Where We Going') 64bit built on Jun  9 2014 15:16:27\n_STATISTICS_WRITING_DATE_UTC             : 2014-06-21 20:08:19\n_STATISTICS_TAGS                         : BPS DURATION NUMBER_OF_FRAMES NUMBER_OF_BYTES\n\nVideo\nID                                       : 1\nFormat                                   : AVC\nFormat/Info                              : Advanced Video Codec\nFormat profile                           : &lt;a class=&quot;__cf_email__&quot; href=&quot;/cdn-cgi/l/email-protection&quot; data-cfemail=&quot;a7efcec0cfe7eb938997&quot;&gt;[email&amp;#160;protected]&lt;/a&gt;&lt;script cf-hash='f9e31' type=&quot;text/javascript&quot;&gt;\n/* &lt;![CDATA[ */!function(){try{var t=&quot;currentScript&quot;in document?document.currentScript:function(){for(var t=document.getElementsByTagName(&quot;script&quot;),e=t.length;e--;)if(t[e].getAttribute(&quot;cf-hash&quot;))return t[e]}();if(t&amp;&amp;t.previousSibling){var e,r,n,i,c=t.previousSibling,a=c.getAttribute(&quot;data-cfemail&quot;);if(a){for(e=&quot;&quot;,r=parseInt(a.substr(0,2),16),n=2;a.length-n;n+=2)i=parseInt(a.substr(n,2),16)^r,e+=String.fromCharCode(i);e=document.createTextNode(e),c.parentNode.replaceChild(e,c)}}}catch(u){}}();/* ]]&gt; */&lt;/script&gt;\nFormat settings, CABAC                   : Yes\nFormat settings, ReFrames                : 4 frames\nCodec ID                                 : V_MPEG4/ISO/AVC\nDuration                                 : 1h 1mn\nBit rate                                 : 5 080 Kbps\nWidth                                    : 1 916 pixels\nHeight                                   : 1 076 pixels\nDisplay aspect ratio                     : 16:9\nFrame rate mode                          : Constant\nFrame rate                               : 23.976 fps\nColor space                              : YUV\nChroma subsampling                       : 4:2:0\nBit depth                                : 8 bits\nScan type                                : Progressive\nBits/(Pixel*Frame)                       : 0.103\nStream size                              : 2.18 GiB (85%)\nTitle                                    : WEB-DL by ECI\nLanguage                                 : English\nDefault                                  : Yes\nForced                                   : No\nColor primaries                          : BT.709\nTransfer characteristics                 : BT.709\nMatrix coefficients                      : BT.709\n\nAudio #1\nID                                       : 2\nFormat                                   : AC-3\nFormat/Info                              : Audio Coding 3\nMode extension                           : CM (complete main)\nFormat settings, Endianness              : Big\nCodec ID                                 : A_AC3\nDuration                                 : 1h 1mn\nBit rate mode                            : Constant\nBit rate                                 : 384 Kbps\nChannel(s)                               : 6 channels\nChannel positions                        : Front: L C R, Side: L R, LFE\nSampling rate                            : 48.0 KHz\nBit depth                                : 16 bits\nCompression mode                         : Lossy\nStream size                              : 169 MiB (6%)\nTitle                                    : by SATOSHi\nLanguage                                 : Italian\nDefault                                  : Yes\nForced                                   : No\n\nAudio #2\nID                                       : 3\nFormat                                   : AC-3\nFormat/Info                              : Audio Coding 3\nMode extension                           : CM (complete main)\nFormat settings, Endianness              : Big\nCodec ID                                 : A_AC3\nDuration                                 : 1h 1mn\nBit rate mode                            : Constant\nBit rate                                 : 384 Kbps\nChannel(s)                               : 6 channels\nChannel positions                        : Front: L C R, Side: L R, LFE\nSampling rate                            : 48.0 KHz\nBit depth                                : 16 bits\nCompression mode                         : Lossy\nStream size                              : 169 MiB (6%)\nTitle                                    : WEB-DL by ECI\nLanguage                                 : English\nDefault                                  : No\nForced                                   : No\n\nText #1\nID                                       : 4\nFormat                                   : UTF-8\nCodec ID                                 : S_TEXT/UTF8\nCodec ID/Info                            : UTF-8 Plain Text\nTitle                                    : Forced\nLanguage                                 : Italian\nDefault                                  : Yes\nForced                                   : Yes\n\nText #2\nID                                       : 5\nFormat                                   : UTF-8\nCodec ID                                 : S_TEXT/UTF8\nCodec ID/Info                            : UTF-8 Plain Text\nTitle                                    : by iTASA\nLanguage                                 : Italian\nDefault                                  : No\nForced                                   : No\n\nText #3\nID                                       : 6\nFormat                                   : UTF-8\nCodec ID                                 : S_TEXT/UTF8\nCodec ID/Info                            : UTF-8 Plain Text\nLanguage                                 : English\nDefault                                  : No\nForced                                   : No\n\n\nSMiL3 AND SEED!","torrent":{"xt":"urn:btih:0cbd3a6f52c18ce172251504205750bf7fc7b752","amp;dn":"Master.Of.Sex.S01E01.1080p.WEB-DL.iTA.ENG.6CH.SUBS.H264-SMiL3.mk","amp;tr":["udp%3A%2F%2Ftracker.openbittorrent.com%3A80","udp%3A%2F%2Fopen.demonii.com%3A1337","udp%3A%2F%2Ftracker.coppersurfer.tk%3A6969","udp%3A%2F%2Fexodus.desync.com%3A6969"],"infoHash":"0cbd3a6f52c18ce172251504205750bf7fc7b752","infoHashBuffer":{"type":"Buffer","data":[12,189,58,111,82,193,140,225,114,37,21,4,32,87,80,191,127,199,183,82]},"announce":[],"urlList":[]}}